{
  "accessors": [
    {
      "bufferView": 2,
      "componentType": 5126,
      "count": 6692,
      "max": [
        4.825016975402832,
        4.8323588371276855,
        -0.0
      ],
      "min": [
        -4.832063674926758,
        -4.80678129196167,
        -1.0
      ],
      "type": "VEC3"
    },
    {
      "bufferView": 2,
      "byteOffset": 80304,
      "componentType": 5126,
      "count": 6692,
      "max": [
        1.0,
        1.0,
        -0.0
      ],
      "min": [
        -1.0,
        -1.0,
        -0.0
      ],
      "type": "VEC3"
    },
    {
      "bufferView": 3,
      "componentType": 5126,
      "count": 6692,
      "max": [
        1.0,
        1.0,
        0.0,
        1.0
      ],
      "min": [
        -1.0,
        -1.0,
        0.0,
        1.0
      ],
      "type": "VEC4"
    },
    {
      "bufferView": 1,
      "componentType": 5126,
      "count": 6692,
      "max": [
        1.0,
        1.0
      ],
      "min": [
        0.0,
        0.0
      ],
      "type": "VEC2"
    },
    {
      "bufferView": 0,
      "componentType": 5125,
      "count": 20064,
      "type": "SCALAR"
    },
    {
      "bufferView": 2,
      "byteOffset": 160608,
      "componentType": 5126,
      "count": 3344,
      "max": [
        4.828540325164795,
        4.8323588371276855,
        -0.0
      ],
      "min": [
        -4.828540325164795,
        -4.80678129196167,
        -0.0
      ],
      "type": "VEC3"
    },
    {
      "bufferView": 2,
      "byteOffset": 200736,
      "componentType": 5126,
      "count": 3344,
      "max": [
        0.0,
        0.0,
        1.0
      ],
      "min": [
        0.0,
        0.0,
        1.0
      ],
      "type": "VEC3"
    },
    {
      "bufferView": 3,
      "byteOffset": 107072,
      "componentType": 5126,
      "count": 3344,
      "max": [
        1.0,
        0.0003480937157291919,
        0.0,
        1.0
      ],
      "min": [
        0.9999999403953552,
        -0.0003359791589900851,
        0.0,
        1.0
      ],
      "type": "VEC4"
    },
    {
      "bufferView": 1,
      "byteOffset": 53536,
      "componentType": 5126,
      "count": 3344,
      "max": [
        1.0,
        1.0
      ],
      "min": [
        0.0,
        0.001857757568359375
      ],
      "type": "VEC2"
    },
    {
      "bufferView": 0,
      "byteOffset": 80256,
      "componentType": 5125,
      "count": 10032,
      "type": "SCALAR"
    },
    {
      "bufferView": 2,
      "byteOffset": 240864,
      "componentType": 5126,
      "count": 3344,
      "max": [
        4.828540325164795,
        4.8323588371276855,
        -1.0
      ],
      "min": [
        -4.828540325164795,
        -4.80678129196167,
        -1.0
      ],
      "type": "VEC3"
    },
    {
      "bufferView": 2,
      "byteOffset": 280992,
      "componentType": 5126,
      "count": 3344,
      "max": [
        0.0,
        0.0,
        -1.0
      ],
      "min": [
        0.0,
        0.0,
        -1.0
      ],
      "type": "VEC3"
    },
    {
      "bufferView": 3,
      "byteOffset": 160576,
      "componentType": 5126,
      "count": 3344,
      "max": [
        1.0,
        0.00035216688411310315,
        0.0,
        -1.0
      ],
      "min": [
        0.9999999403953552,
        -0.0003582746721804142,
        0.0,
        -1.0
      ],
      "type": "VEC4"
    },
    {
      "bufferView": 1,
      "byteOffset": 80288,
      "componentType": 5126,
      "count": 3344,
      "max": [
        1.0,
        1.0
      ],
      "min": [
        0.0,
        0.001857757568359375
      ],
      "type": "VEC2"
    },
    {
      "bufferView": 0,
      "byteOffset": 120384,
      "componentType": 5125,
      "count": 10032,
      "type": "SCALAR"
    }
  ],
  "asset": {
    "extras": {
      "author": "Adamante (https://sketchfab.com/Adamant6686)",
      "license": "CC-BY-4.0 (http://creativecommons.org/licenses/by/4.0/)",
      "source": "https://sketchfab.com/3d-models/cogweel-gear-0d9eee5278884251a05c6f4b2c606bb7",
      "title": "Cogweel | Gear"
    },
    "generator": "Sketchfab-12.65.0",
    "version": "2.0"
  },
  "bufferViews": [
    {
      "buffer": 0,
      "byteLength": 160512,
      "name": "floatBufferViews",
      "target": 34963
    },
    {
      "buffer": 0,
      "byteLength": 107040,
      "byteOffset": 160512,
      "byteStride": 8,
      "name": "floatBufferViews",
      "target": 34962
    },
    {
      "buffer": 0,
      "byteLength": 321120,
      "byteOffset": 267552,
      "byteStride": 12,
      "name": "floatBufferViews",
      "target": 34962
    },
    {
      "buffer": 0,
      "byteLength": 214080,
      "byteOffset": 588672,
      "byteStride": 16,
      "name": "floatBufferViews",
      "target": 34962
    }
  ],
  "buffers": [
    {
      "byteLength": 802752,
      "uri": "scene.bin"
    }
  ],
  "images": [
    {
      "uri": "textures/Mat.2_baseColor.jpeg"
    },
    {
      "uri": "textures/Mat.2_metallicRoughness.png"
    },
    {
      "uri": "textures/Mat.2_normal.png"
    }
  ],
  "materials": [
    {
      "doubleSided": true,
      "name": "Mat.2",
      "normalTexture": {
        "index": 2
      },
      "occlusionTexture": {
        "index": 1
      },
      "pbrMetallicRoughness": {
        "baseColorTexture": {
          "index": 0
        },
        "metallicRoughnessTexture": {
          "index": 1
        }
      }
    }
  ],
  "meshes": [
    {
      "name": "Gear_07_Mat.2_0",
      "primitives": [
        {
          "attributes": {
            "NORMAL": 1,
            "POSITION": 0,
            "TANGENT": 2,
            "TEXCOORD_0": 3
          },
          "indices": 4,
          "material": 0,
          "mode": 4
        }
      ]
    },
    {
      "name": "Cap_1_Mat.2_0",
      "primitives": [
        {
          "attributes": {
            "NORMAL": 6,
            "POSITION": 5,
            "TANGENT": 7,
            "TEXCOORD_0": 8
          },
          "indices": 9,
          "material": 0,
          "mode": 4
        }
      ]
    },
    {
      "name": "Cap_2_Mat.2_0",
      "primitives": [
        {
          "attributes": {
            "NORMAL": 11,
            "POSITION": 10,
            "TANGENT": 12,
            "TEXCOORD_0": 13
          },
          "indices": 14,
          "material": 0,
          "mode": 4
        }
      ]
    }
  ],
  "nodes": [
    {
      "children": [
        1
      ],
      "matrix": [
        1.0,
        0.0,
        0.0,
        0.0,
        0.0,
        2.220446049250313e-16,
        -1.0,
        0.0,
        0.0,
        1.0,
        2.220446049250313e-16,
        0.0,
        0.0,
        0.0,
        0.0,
        1.0
      ],
      "name": "Sketchfab_model"
    },
    {
      "children": [
        2
      ],
      "matrix": [
        1.0,
        0.0,
        0.0,
        0.0,
        0.0,
        0.0,
        1.0,
        0.0,
        0.0,
        -1.0,
        0.0,
        0.0,
        0.0,
        0.0,
        0.0,
        1.0
      ],
      "name": "1b774d00f2024e4ea290be7f95143b76.fbx"
    },
    {
      "children": [
        3,
        5
      ],
      "name": "RootNode"
    },
    {
      "children": [
        4
      ],
      "matrix": [
        0.3006087072129834,
        0.11328434041356769,
        0.9469958095814374,
        0.0,
        -0.03427490004860292,
        0.9935626091077818,
        -0.10797487212122721,
        0.0,
        -0.9531314895513615,
        -2.3592239273284576e-16,
        0.302556380903796,
        0.0,
        -4.826117992401123,
        -1.098594069480896,
        -20.03114128112793,
        1.0
      ],
      "name": "CINEMA_4D_Editor"
    },
    {
      "name": "Object_4"
    },
    {
      "children": [
        6,
        7,
        9
      ],
      "name": "Gear_07"
    },
    {
      "mesh": 0,
      "name": "Gear_07_Mat.2_0"
    },
    {
      "children": [
        8
      ],
      "matrix": [
        1.0,
        0.0,
        0.0,
        0.0,
        0.0,
        1.0,
        0.0,
        0.0,
        0.0,
        0.0,
        1.0,
        0.0,
        -0.0035232738591730595,
        0.0,
        0.0,
        1.0
      ],
      "name": "Cap_1"
    },
    {
      "mesh": 1,
      "name": "Cap_1_Mat.2_0"
    },
    {
      "children": [
        10
      ],
      "matrix": [
        1.0,
        0.0,
        0.0,
        0.0,
        0.0,
        1.0,
        0.0,
        0.0,
        0.0,
        0.0,
        1.0,
        0.0,
        -0.0035232738591730595,
        0.0,
        0.0,
        1.0
      ],
      "name": "Cap_2"
    },
    {
      "mesh": 2,
      "name": "Cap_2_Mat.2_0"
    }
  ],
  "samplers": [
    {
      "magFilter": 9729,
      "minFilter": 9987,
      "wrapS": 10497,
      "wrapT": 10497
    }
  ],
  "scene": 0,
  "scenes": [
    {
      "name": "Sketchfab_Scene",
      "nodes": [
        0
      ]
    }
  ],
  "textures": [
    {
      "sampler": 0,
      "source": 0
    },
    {
      "sampler": 0,
      "source": 1
    },
    {
      "sampler": 0,
      "source": 2
    }
  ]
}
